<svg width="125" height="27" viewBox="0 0 125 27" version="1.1" xmlns="http://www.w3.org/2000/svg" xmlns:xlink="http://www.w3.org/1999/xlink">
<title>digitool-logo</title>
<desc>Created using Figma</desc>
<g id="Canvas" transform="translate(-119 416)">
<g id="digitool-logo">
<use xlink:href="#path0_fill" transform="translate(119 -416)" fill="#3653F4"/>
<use xlink:href="#path1_fill" transform="translate(119 -416)" fill="#3653F4"/>
<use xlink:href="#path2_fill" transform="translate(119 -416)" fill="#3653F4"/>
<use xlink:href="#path3_fill" transform="translate(119 -416)" fill="#3653F4"/>
<use xlink:href="#path4_fill" transform="translate(119 -416)" fill="#3653F4"/>
<use xlink:href="#path5_fill" transform="translate(119 -416)" fill="#3653F4"/>
<use xlink:href="#path6_fill" transform="translate(119 -416)" fill="#3653F4"/>
<use xlink:href="#path7_fill" transform="translate(119 -416)" fill="#3653F4"/>
<use xlink:href="#path8_fill" transform="translate(119 -416)" fill="#3653F4"/>
</g>
</g>
<defs>
<path id="path0_fill" d="M 26.7154 0L 0 0L 0 26.4901L 11.3044 26.4901L 18.923 12.4594L 26.7154 16.8498L 26.7154 0Z"/>
<path id="path1_fill" d="M 49.02 11.8134C 49.02 13.3465 48.641 14.7142 47.8832 15.9166C 47.1404 17.119 46.1021 18.0583 44.7683 18.7347C 43.4495 19.396 41.9565 19.7266 40.2892 19.7266L 34.6732 19.7266L 34.6732 3.90024L 40.2892 3.90024C 41.9717 3.90024 43.4723 4.2309 44.791 4.89221C 46.1097 5.55352 47.1404 6.48537 47.8832 7.68776C 48.641 8.89014 49.02 10.2654 49.02 11.8134ZM 40.2892 16.7958C 41.7746 16.7958 42.9417 16.3449 43.7906 15.4431C 44.6394 14.5414 45.0638 13.3315 45.0638 11.8134C 45.0638 10.2954 44.6394 9.08553 43.7906 8.18374C 42.9417 7.28195 41.7746 6.83106 40.2892 6.83106L 38.5612 6.83106L 38.5612 16.7958L 40.2892 16.7958Z"/>
<path id="path2_fill" d="M 51.1403 4.12569C 51.1403 3.4794 51.3601 2.93833 51.7997 2.50247C 52.2393 2.0666 52.7774 1.84867 53.414 1.84867C 54.0506 1.84867 54.5887 2.0666 55.0283 2.50247C 55.4679 2.93833 55.6877 3.4794 55.6877 4.12569C 55.6877 4.75694 55.4679 5.2905 55.0283 5.72636C 54.5887 6.16223 54.0506 6.38016 53.414 6.38016C 52.7774 6.38016 52.2393 6.16223 51.7997 5.72636C 51.3601 5.2905 51.1403 4.75694 51.1403 4.12569ZM 55.3693 7.14668L 55.3693 19.7266L 51.4814 19.7266L 51.4814 7.14668L 55.3693 7.14668Z"/>
<path id="path3_fill" d="M 63.6293 7.01141C 65.2512 7.01141 66.4941 7.60509 67.3581 8.79245L 67.3581 7.14668L 71.246 7.14668L 71.246 19.659C 71.246 21.5077 70.7231 23.0182 69.6772 24.1905C 68.6465 25.3628 67.0473 25.949 64.8798 25.949C 62.9396 25.949 61.4011 25.5582 60.2643 24.7767C 59.1274 23.9951 58.4832 22.8002 58.3317 21.1921L 62.1514 21.1921C 62.5152 22.1389 63.4247 22.6124 64.8798 22.6124C 65.5922 22.6124 66.1833 22.3719 66.6532 21.8909C 67.1231 21.425 67.3581 20.681 67.3581 19.659L 67.3581 17.9005C 66.4183 19.2231 65.1754 19.8845 63.6293 19.8845C 62.5834 19.8845 61.6133 19.6139 60.719 19.0728C 59.8399 18.5318 59.1426 17.7728 58.6272 16.7958C 58.1119 15.8189 57.8542 14.7067 57.8542 13.4592C 57.8542 12.2117 58.1119 11.0995 58.6272 10.1226C 59.1426 9.14565 59.8399 8.38664 60.719 7.84557C 61.6133 7.28946 62.5834 7.01141 63.6293 7.01141ZM 64.5842 10.348C 64.1295 10.348 63.6823 10.4683 63.2428 10.7087C 62.8183 10.9342 62.4697 11.2799 62.1969 11.7458C 61.9392 12.2117 61.8104 12.7829 61.8104 13.4592C 61.8104 14.1355 61.9392 14.7067 62.1969 15.1726C 62.4697 15.6235 62.8183 15.9692 63.2428 16.2097C 63.6672 16.4351 64.1143 16.5478 64.5842 16.5478C 65.0389 16.5478 65.4785 16.4351 65.9029 16.2097C 66.3425 15.9692 66.6911 15.616 66.9488 15.1501C 67.2216 14.6841 67.3581 14.113 67.3581 13.4367C 67.3581 12.7603 67.2216 12.1967 66.9488 11.7458C 66.6911 11.2799 66.3501 10.9342 65.9257 10.7087C 65.5013 10.4683 65.0541 10.348 64.5842 10.348Z"/>
<path id="path4_fill" d="M 74.321 4.12569C 74.321 3.4794 74.5407 2.93833 74.9803 2.50247C 75.4199 2.0666 75.958 1.84867 76.5946 1.84867C 77.2312 1.84867 77.7693 2.0666 78.2089 2.50247C 78.6485 2.93833 78.8683 3.4794 78.8683 4.12569C 78.8683 4.75694 78.6485 5.2905 78.2089 5.72636C 77.7693 6.16223 77.2312 6.38016 76.5946 6.38016C 75.958 6.38016 75.4199 6.16223 74.9803 5.72636C 74.5407 5.2905 74.321 4.75694 74.321 4.12569ZM 78.55 7.14668L 78.55 19.7266L 74.662 19.7266L 74.662 7.14668L 78.55 7.14668Z"/>
<path id="path5_fill" d="M 88.7425 16.4577L 88.7425 19.7266L 86.7644 19.7266C 85.3396 19.7266 84.2331 19.4185 83.4449 18.8023C 82.6718 18.1711 82.2853 17.0964 82.2853 15.5784L 82.2853 10.348L 81.103 10.348L 81.103 7.14668L 82.2853 7.14668L 82.2853 4.0806L 86.1733 4.0806L 86.1733 7.14668L 88.7198 7.14668L 88.7198 10.348L 86.1733 10.348L 86.1733 15.5784C 86.1733 15.879 86.2642 16.1045 86.4461 16.2548C 86.628 16.39 86.9312 16.4577 87.3556 16.4577L 88.7425 16.4577Z"/>
<path id="path6_fill" d="M 97.1332 7.01141C 98.3458 7.01141 99.4523 7.27444 100.453 7.80048C 101.468 8.31149 102.272 9.05547 102.863 10.0324C 103.454 10.9943 103.75 12.1216 103.75 13.4141C 103.75 14.7067 103.454 15.8414 102.863 16.8184C 102.287 17.7953 101.499 18.5543 100.498 19.0954C 99.4978 19.6214 98.3837 19.8845 97.1559 19.8845C 95.9281 19.8845 94.8065 19.6214 93.7909 19.0954C 92.7753 18.5543 91.972 17.7953 91.3808 16.8184C 90.7897 15.8414 90.4941 14.7067 90.4941 13.4141C 90.4941 12.1216 90.7897 10.9943 91.3808 10.0324C 91.972 9.05547 92.7678 8.31149 93.7682 7.80048C 94.7837 7.27444 95.9054 7.01141 97.1332 7.01141ZM 97.1332 10.3029C 96.3904 10.3029 95.7538 10.5735 95.2233 11.1146C 94.7079 11.6406 94.4503 12.4146 94.4503 13.4367C 94.4503 14.4587 94.7155 15.2402 95.246 15.7813C 95.7917 16.3224 96.4283 16.5929 97.1559 16.5929C 97.8835 16.5929 98.5049 16.3224 99.0203 15.7813C 99.5357 15.2402 99.7934 14.4587 99.7934 13.4367C 99.7934 12.4146 99.5281 11.6406 98.9976 11.1146C 98.467 10.5735 97.8456 10.3029 97.1332 10.3029Z"/>
<path id="path7_fill" d="M 111.987 7.01141C 113.2 7.01141 114.307 7.27444 115.307 7.80048C 116.323 8.31149 117.126 9.05547 117.717 10.0324C 118.308 10.9943 118.604 12.1216 118.604 13.4141C 118.604 14.7067 118.308 15.8414 117.717 16.8184C 117.141 17.7953 116.353 18.5543 115.352 19.0954C 114.352 19.6214 113.238 19.8845 112.01 19.8845C 110.782 19.8845 109.661 19.6214 108.645 19.0954C 107.63 18.5543 106.826 17.7953 106.235 16.8184C 105.644 15.8414 105.348 14.7067 105.348 13.4141C 105.348 12.1216 105.644 10.9943 106.235 10.0324C 106.826 9.05547 107.622 8.31149 108.622 7.80048C 109.638 7.27444 110.76 7.01141 111.987 7.01141ZM 111.987 10.3029C 111.245 10.3029 110.608 10.5735 110.078 11.1146C 109.562 11.6406 109.305 12.4146 109.305 13.4367C 109.305 14.4587 109.57 15.2402 110.1 15.7813C 110.646 16.3224 111.283 16.5929 112.01 16.5929C 112.738 16.5929 113.359 16.3224 113.875 15.7813C 114.39 15.2402 114.648 14.4587 114.648 13.4367C 114.648 12.4146 114.382 11.6406 113.852 11.1146C 113.321 10.5735 112.7 10.3029 111.987 10.3029Z"/>
<path id="path8_fill" d="M 125 3.04354L 125 19.7266L 121.112 19.7266L 121.112 3.04354L 125 3.04354Z"/>
</defs>
</svg>
