<svg width="1440" height="381" viewBox="0 0 1440 381" version="1.1" xmlns="http://www.w3.org/2000/svg" xmlns:xlink="http://www.w3.org/1999/xlink" preserveAspectRatio="none">
<title>Footer</title>
<desc>Created using Figma</desc>
<g id="Canvas" transform="translate(539 -1679)">
<g id="Footer">
<g id="Vector 2.1">
<use xlink:href="#path0_fill" transform="translate(-539 1682)" fill="url(#paint0_linear)" fill-opacity="0.05"/>
</g>
<g id="Vector 2.2">
<use xlink:href="#path1_fill" transform="translate(-539 1702)" fill="url(#paint1_linear)" fill-opacity="0.25"/>
</g>
<g id="Vector">
<use xlink:href="#path2_fill" transform="translate(-539 1679)" fill="#3E5AF4"/>
</g>
</g>
</g>
<defs>
<linearGradient id="paint0_linear" x1="0" y1="0" x2="1" y2="0" gradientUnits="userSpaceOnUse" gradientTransform="matrix(8.81745e-14 308 -1440 1.88595e-14 1440 0)">
<stop offset="0" stop-color="#3E5AF4"/>
<stop offset="1" stop-color="#3E5AF4" stop-opacity="0.05"/>
</linearGradient>
<linearGradient id="paint1_linear" x1="0" y1="0" x2="1" y2="0" gradientUnits="userSpaceOnUse" gradientTransform="matrix(8.81745e-14 408 -1440 2.49828e-14 1440 -120)">
<stop offset="0" stop-color="#3E5AF4"/>
<stop offset="1" stop-color="#3E5AF4" stop-opacity="0"/>
</linearGradient>
<path id="path0_fill" d="M 0 105.111L 219.661 165L 463.729 58.6667L 705.356 105.111L 951.864 30.5556L 1197.15 105.111L 1440 0L 1440 378L 0 378L 0 105.111Z"/>
<path id="path1_fill" d="M 0 358L 0 48L 219.661 136.072L 463.729 148.826L 707.797 104.766L 951.864 178.06L 1194.71 104.766L 1440 0L 1440 358L 0 358Z"/>
<path id="path2_fill" d="M 0 381L 0 244L 219.661 142.377L 463.729 206.987L 707.797 180.72L 951.864 136.188L 1195.93 153.933L 1440 0L 1440 381L 0 381Z"/>
</defs>
</svg>
