<svg width="730" height="560" viewBox="0 0 730 560" fill="none" xmlns="http://www.w3.org/2000/svg">
<rect width="730" height="560" fill="white"/>
<rect width="730" height="560" fill="#DEE2E6"/>
<path d="M410.975 214H318.995C312.896 214 307.047 216.323 302.735 220.458C298.423 224.593 296 230.202 296 236.05V324.25C296 330.098 298.423 335.707 302.735 339.842C307.047 343.977 312.896 346.3 318.995 346.3H410.975C417.074 346.3 422.923 343.977 427.235 339.842C431.547 335.707 433.97 330.098 433.97 324.25V236.05C433.97 230.202 431.547 224.593 427.235 220.458C422.923 216.323 417.074 214 410.975 214ZM318.995 228.7H410.975C413.008 228.7 414.958 229.474 416.395 230.853C417.832 232.231 418.64 234.101 418.64 236.05V297.496L394.112 277.431C390.312 274.432 385.543 272.793 380.622 272.793C375.7 272.793 370.932 274.432 367.131 277.431L311.33 322.045V236.05C311.33 234.101 312.138 232.231 313.575 230.853C315.012 229.474 316.962 228.7 318.995 228.7V228.7ZM410.975 331.6H323.287L376.942 288.676C377.973 287.942 379.223 287.546 380.507 287.546C381.79 287.546 383.04 287.942 384.071 288.676L418.64 316.9V324.25C418.64 326.199 417.832 328.069 416.395 329.447C414.958 330.826 413.008 331.6 410.975 331.6Z" fill="white"/>
<path d="M334.325 265.45C340.675 265.45 345.822 260.514 345.822 254.425C345.822 248.336 340.675 243.4 334.325 243.4C327.975 243.4 322.828 248.336 322.828 254.425C322.828 260.514 327.975 265.45 334.325 265.45Z" fill="white"/>
</svg>
