<svg width="500" height="400" viewBox="0 0 500 400" fill="none" xmlns="http://www.w3.org/2000/svg">
<rect width="500" height="400" fill="#E5E5E5"/>
<rect width="500" height="400" fill="white"/>
<rect width="500" height="400" fill="#DEE2E6"/>
<path d="M281.75 153H218.75C214.573 153 210.567 154.659 207.613 157.613C204.659 160.567 203 164.573 203 168.75V231.75C203 235.927 204.659 239.933 207.613 242.887C210.567 245.841 214.573 247.5 218.75 247.5H281.75C285.927 247.5 289.933 245.841 292.887 242.887C295.841 239.933 297.5 235.927 297.5 231.75V168.75C297.5 164.573 295.841 160.567 292.887 157.613C289.933 154.659 285.927 153 281.75 153ZM218.75 163.5H281.75C283.142 163.5 284.478 164.053 285.462 165.038C286.447 166.022 287 167.358 287 168.75V212.64L270.2 198.308C267.597 196.166 264.331 194.995 260.96 194.995C257.589 194.995 254.323 196.166 251.72 198.308L213.5 230.175V168.75C213.5 167.358 214.053 166.022 215.038 165.038C216.022 164.053 217.358 163.5 218.75 163.5V163.5ZM281.75 237H221.69L258.44 206.34C259.146 205.816 260.002 205.533 260.881 205.533C261.761 205.533 262.617 205.816 263.322 206.34L287 226.5V231.75C287 233.142 286.447 234.478 285.462 235.462C284.478 236.447 283.142 237 281.75 237Z" fill="white"/>
<path d="M229.25 189.75C233.599 189.75 237.125 186.224 237.125 181.875C237.125 177.526 233.599 174 229.25 174C224.901 174 221.375 177.526 221.375 181.875C221.375 186.224 224.901 189.75 229.25 189.75Z" fill="white"/>
</svg>
